<svg xmlns="http://www.w3.org/2000/svg" id="a" width="1994.123" height="448.893" viewBox="0 0 1994.123 448.893"><path d="m551.609,231.544l-.262-121.361-60.158,100.437h-15.17l-60.158-98.868v119.792h-32.432V48.456h27.987l72.711,121.361,71.404-121.361h27.987l.261,183.088h-32.171Z" style="fill:#003b49;"></path><path d="m678.982,212.843c-14.124-14.21-21.186-34.566-21.186-61.073V48.456h34.001v102.006c0,35.924,15.518,53.882,46.558,53.882,30.863,0,46.294-17.958,46.294-53.882V48.456h33.48v103.314c0,26.507-7.022,46.863-21.056,61.073-14.038,14.215-33.7,21.318-58.981,21.318s-44.987-7.102-59.111-21.318Z" style="fill:#003b49;"></path><path d="m891.884,48.456h34.003v154.318h95.728v28.769h-129.731V48.456Z" style="fill:#003b49;"></path><path d="m1094.854,77.228h-60.682v-28.772h155.363v28.772h-60.679v154.316h-34.003V77.228Z" style="fill:#003b49;"></path><path d="m1241.322,48.456h34.003v183.088h-34.003V48.456Z" style="fill:#003b49;"></path><path d="m1385.567,221.997c-14.908-8.108-26.593-19.308-35.048-33.609-8.46-14.296-12.688-30.427-12.688-48.387s4.272-34.089,12.818-48.387c8.541-14.296,20.27-25.501,35.178-33.609,14.908-8.108,31.602-12.164,50.087-12.164,14.994,0,28.683,2.617,41.066,7.848,12.378,5.231,22.84,12.816,31.386,22.756l-21.972,20.661c-13.253-14.296-29.554-21.448-48.909-21.448-12.555,0-23.801,2.747-33.742,8.241-9.938,5.492-17.7,13.12-23.278,22.884-5.583,9.769-8.369,20.841-8.369,33.218s2.786,23.455,8.369,33.218c5.578,9.766,13.339,17.392,23.278,22.887,9.941,5.492,21.187,8.239,33.742,8.239,19.355,0,35.655-7.235,48.909-21.711l21.972,20.927c-8.546,9.938-19.053,17.523-31.516,22.754-12.469,5.231-26.202,7.848-41.196,7.848-18.484,0-35.178-4.056-50.087-12.164Z" style="fill:#003b49;"></path><path d="m1682.035,189.172h-91.544l-18.049,42.372h-35.048l82.39-183.088h33.479l82.651,183.088h-35.569l-18.31-42.372Zm-11.247-26.679l-34.527-80.034-34.263,80.034h68.79Z" style="fill:#003b49;"></path><path d="m1953.528,231.544l-.261-121.361-60.158,100.437h-15.169l-60.158-98.868v119.792h-32.434V48.456h27.987l72.713,121.361,71.404-121.361h27.985l.263,183.088h-32.173Z" style="fill:#003b49;"></path><path d="m79.685,13.634C32.558,36.168,0,84.278,0,140c0,20.693,4.525,40.317,12.583,57.992L79.685,13.634Z" style="fill:#003b49;"></path><path d="m200.315,266.366c47.126-22.534,79.685-70.645,79.685-126.366,0-20.693-4.525-40.317-12.583-57.992l-67.101,184.359Z" style="fill:#003b49;"></path><path d="m239.59,41.629c-9.79-9.911-21.043-18.368-33.418-25.018l-60.445,166.072h-42.524L168.624,2.939c-9.242-1.92-18.813-2.939-28.624-2.939-4.406,0-8.756.229-13.058.627L40.41,238.371c25.382,25.694,60.62,41.629,99.59,41.629,4.406,0,8.756-.229,13.058-.627L239.59,41.629Z" style="fill:#f58420;"></path><path d="m463.302,424.089h-10.193c-1.179,0-2.129-.294-2.853-.883-.724-.588-1.268-1.336-1.63-2.243l-9.107-23.512h-43.695l-9.107,23.512c-.27.817-.793,1.541-1.562,2.175-.772.635-1.722.952-2.853.952h-10.193l38.936-97.379h13.32l38.939,97.379Zm-27.454-36.152l-15.289-39.619c-.454-1.177-.929-2.548-1.428-4.111s-.974-3.228-1.428-4.994c-.95,3.67-1.924,6.727-2.922,9.173l-15.289,39.55h36.355Z" style="fill:#003b49;"></path><path d="m524.053,369.385h4.959c1.722,0,3.103-.215,4.145-.646s1.995-1.165,2.856-2.209l32.412-36.695c.906-1.177,1.859-1.992,2.856-2.447.995-.451,2.218-.678,3.667-.678h11.147l-37.104,41.927c-.909,1.088-1.779,1.983-2.616,2.684-.84.704-1.734,1.281-2.684,1.734,1.223.407,2.331,1.008,3.329,1.801s1.972,1.823,2.922,3.091l38.737,46.142h-11.417c-.861,0-1.597-.056-2.209-.169s-1.146-.295-1.597-.545c-.454-.248-.849-.543-1.191-.883-.338-.34-.668-.735-.983-1.189l-33.57-38.665c-.909-1.133-1.882-1.937-2.922-2.413-1.045-.477-2.628-.714-4.757-.714h-5.98v44.579h-13.118v-97.379h13.118v42.675Z" style="fill:#003b49;"></path><path d="m621.865,354.164c5.03,0,9.558.839,13.593,2.513,4.029,1.678,7.474,4.056,10.327,7.137s5.039,6.807,6.559,11.178c1.517,4.372,2.274,9.254,2.274,14.644,0,5.437-.757,10.33-2.274,14.678-1.52,4.35-3.706,8.064-6.559,11.145s-6.298,5.449-10.327,7.101c-4.035,1.654-8.563,2.481-13.593,2.481-5.074,0-9.638-.827-13.691-2.481-4.056-1.652-7.509-4.02-10.366-7.101-2.853-3.081-5.039-6.795-6.556-11.145-1.517-4.348-2.277-9.242-2.277-14.678,0-5.391.76-10.272,2.277-14.644,1.517-4.371,3.703-8.097,6.556-11.178,2.856-3.081,6.31-5.459,10.366-7.137,4.053-1.675,8.617-2.513,13.691-2.513Zm0,61.431c6.797,0,11.868-2.276,15.223-6.829,3.352-4.553,5.027-10.906,5.027-19.061,0-8.2-1.675-14.586-5.027-19.163-3.355-4.576-8.427-6.863-15.223-6.863-3.441,0-6.443.589-9.003,1.767-2.559,1.179-4.688,2.877-6.39,5.097-1.698,2.221-2.966,4.95-3.804,8.189-.84,3.239-1.259,6.898-1.259,10.974,0,8.155,1.689,14.508,5.063,19.061,3.376,4.553,8.507,6.829,15.393,6.829Z" style="fill:#003b49;"></path><path d="m679.543,365.24c1.496-1.676,3.082-3.195,4.757-4.553s3.453-2.525,5.336-3.499c1.88-.974,3.872-1.722,5.98-2.243,2.105-.52,4.383-.781,6.829-.781,3.759,0,7.079.624,9.956,1.869,2.874,1.246,5.276,3.012,7.203,5.3,1.924,2.288,3.385,5.04,4.383,8.256.995,3.217,1.494,6.773,1.494,10.67v43.83h-12.162v-43.83c0-5.21-1.191-9.254-3.569-12.131-2.378-2.876-5.992-4.314-10.838-4.314-3.581,0-6.921.861-10.024,2.582-3.103,1.722-5.968,4.054-8.596,6.998v50.695h-12.165v-68.839h7.272c1.722,0,2.785.839,3.195,2.515l.95,7.475Z" style="fill:#003b49;"></path><path d="m799.729,357.969v4.485c0,1.495-.95,2.447-2.853,2.855l-7.815,1.018c1.538,2.99,2.31,6.298,2.31,9.922,0,3.354-.644,6.399-1.936,9.139-1.292,2.742-3.07,5.086-5.336,7.034s-4.982,3.443-8.154,4.485-6.615,1.563-10.33,1.563c-3.216,0-6.25-.385-9.107-1.155-1.449.906-2.559,1.868-3.329,2.888-.772,1.018-1.155,2.05-1.155,3.092,0,1.63.668,2.865,2.004,3.703,1.336.839,3.091,1.439,5.267,1.801,2.173.364,4.653.589,7.441.68,2.785.091,5.639.238,8.56.441,2.925.205,5.778.555,8.563,1.054s5.267,1.314,7.441,2.447c2.176,1.133,3.931,2.696,5.267,4.688,1.336,1.994,2.004,4.577,2.004,7.747,0,2.944-.736,5.799-2.209,8.562s-3.59,5.221-6.354,7.374c-2.761,2.151-6.149,3.873-10.158,5.165-4.008,1.29-8.528,1.936-13.558,1.936s-9.424-.499-13.183-1.495c-3.762-.998-6.886-2.334-9.377-4.01-2.494-1.676-4.362-3.612-5.606-5.809-1.247-2.199-1.871-4.497-1.871-6.898,0-3.398,1.066-6.275,3.195-8.63s5.051-4.236,8.765-5.64c-2.037-.906-3.658-2.117-4.858-3.636-1.203-1.517-1.802-3.568-1.802-6.151,0-.995.181-2.027.543-3.091s.917-2.129,1.666-3.195c.748-1.063,1.666-2.073,2.752-3.023,1.087-.952,2.355-1.79,3.807-2.515-3.4-1.903-6.048-4.427-7.952-7.577-1.903-3.147-2.853-6.805-2.853-10.974,0-3.352.644-6.399,1.936-9.139s3.091-5.074,5.401-7c2.313-1.926,5.066-3.409,8.257-4.451,3.195-1.042,6.693-1.563,10.499-1.563,2.99,0,5.775.33,8.358.986s4.938,1.62,7.067,2.888h18.688Zm-12.299,69.859c0-1.678-.478-3.036-1.428-4.078-.95-1.041-2.233-1.857-3.839-2.447-1.609-.588-3.477-1.007-5.606-1.256-2.132-.249-4.383-.442-6.761-.579-2.378-.135-4.792-.272-7.239-.407-2.447-.137-4.801-.362-7.067-.68-2.539,1.179-4.611,2.662-6.218,4.451-1.609,1.789-2.414,3.884-2.414,6.286,0,1.54.398,2.978,1.191,4.316.793,1.335,2.004,2.491,3.634,3.465,1.633.974,3.682,1.744,6.152,2.31,2.467.567,5.377.851,8.733.851,3.26,0,6.182-.295,8.765-.883,2.583-.589,4.769-1.428,6.556-2.515,1.79-1.087,3.162-2.378,4.112-3.873s1.428-3.149,1.428-4.96Zm-21.815-37.377c2.447,0,4.599-.338,6.455-1.018,1.859-.68,3.421-1.632,4.691-2.855,1.265-1.222,2.218-2.684,2.853-4.383.632-1.698.95-3.568.95-5.606,0-4.213-1.28-7.566-3.839-10.058-2.559-2.49-6.262-3.737-11.111-3.737-4.893,0-8.62,1.247-11.179,3.737-2.559,2.493-3.839,5.845-3.839,10.058,0,2.038.33,3.908.986,5.606s1.618,3.161,2.889,4.383c1.268,1.223,2.83,2.175,4.688,2.855,1.856.68,4.008,1.018,6.455,1.018Z" style="fill:#003b49;"></path><path d="m851.631,366.599c-.543.998-1.381,1.495-2.515,1.495-.677,0-1.449-.248-2.31-.747s-1.912-1.054-3.159-1.666-2.729-1.177-4.451-1.698c-1.722-.52-3.762-.781-6.117-.781-2.037,0-3.872.261-5.505.781-1.63.521-3.023,1.235-4.178,2.141-1.155.907-2.04,1.96-2.652,3.159-.612,1.201-.917,2.505-.917,3.908,0,1.767.511,3.239,1.529,4.417,1.021,1.179,2.366,2.199,4.044,3.058,1.675.861,3.578,1.621,5.71,2.277,2.129.656,4.314,1.358,6.556,2.107,2.242.747,4.427,1.574,6.559,2.479,2.129.907,4.029,2.038,5.707,3.398,1.675,1.358,3.023,3.024,4.044,4.994,1.018,1.972,1.529,4.338,1.529,7.101,0,3.173-.567,6.106-1.698,8.801-1.134,2.696-2.812,5.028-5.03,7-2.221,1.97-4.938,3.523-8.154,4.654-3.219,1.131-6.933,1.698-11.147,1.698-4.801,0-9.151-.781-13.047-2.344s-7.203-3.568-9.92-6.014l2.853-4.62c.362-.588.793-1.042,1.292-1.36.496-.316,1.131-.475,1.903-.475.814,0,1.675.318,2.58.952s2.004,1.336,3.296,2.107c1.292.771,2.865,1.473,4.724,2.107,1.856.634,4.166.95,6.93.95,2.355,0,4.418-.306,6.185-.916,1.767-.612,3.239-1.439,4.415-2.481,1.179-1.042,2.052-2.243,2.619-3.602.564-1.36.849-2.809.849-4.35,0-1.902-.511-3.475-1.529-4.723-1.021-1.246-2.369-2.31-4.044-3.193-1.678-.883-3.59-1.654-5.743-2.31s-4.35-1.348-6.592-2.073c-2.242-.724-4.439-1.551-6.592-2.481-2.153-.928-4.065-2.095-5.743-3.499-1.675-1.404-3.023-3.137-4.041-5.199-1.021-2.061-1.529-4.564-1.529-7.509,0-2.626.543-5.153,1.63-7.577,1.087-2.423,2.672-4.552,4.757-6.387,2.084-1.835,4.644-3.296,7.678-4.384,3.035-1.087,6.5-1.63,10.398-1.63,4.528,0,8.596.713,12.198,2.141,3.602,1.427,6.716,3.386,9.344,5.878l-2.72,4.417Z" style="fill:#003b49;"></path><path d="m880.228,365.172c2.898-3.352,6.173-6.025,9.819-8.018,3.646-1.994,7.848-2.99,12.604-2.99,4.032,0,7.67.771,10.909,2.31,3.236,1.541,5.989,3.771,8.254,6.694,2.266,2.922,4,6.467,5.199,10.634,1.2,4.169,1.802,8.857,1.802,14.067,0,5.572-.68,10.646-2.04,15.222-1.36,4.577-3.32,8.485-5.879,11.723-2.559,3.239-5.674,5.754-9.341,7.543-3.67,1.789-7.794,2.684-12.37,2.684-4.531,0-8.347-.849-11.449-2.549-3.103-1.698-5.811-4.111-8.121-7.236l-.612,6.252c-.362,1.722-1.404,2.582-3.127,2.582h-7.815v-100.098h12.165v41.18Zm0,42.335c2.218,2.99,4.656,5.097,7.304,6.32,2.652,1.223,5.561,1.835,8.733,1.835,6.479,0,11.44-2.286,14.882-6.863,3.444-4.576,5.166-11.393,5.166-20.454,0-8.427-1.529-14.622-4.587-18.586-3.058-3.964-7.42-5.946-13.082-5.946-3.94,0-7.373.906-10.294,2.717-2.922,1.813-5.63,4.374-8.121,7.68v33.297Z" style="fill:#003b49;"></path><path d="m998.932,414.439c-1.496,1.813-3.287,3.388-5.368,4.723-2.084,1.338-4.314,2.436-6.693,3.296-2.381.861-4.837,1.507-7.376,1.937-2.536.431-5.051.646-7.542.646-4.757,0-9.139-.805-13.151-2.413-4.008-1.608-7.474-3.964-10.395-7.067s-5.199-6.942-6.829-11.519c-1.633-4.576-2.447-9.83-2.447-15.765,0-4.801.736-9.286,2.209-13.455,1.47-4.167,3.59-7.781,6.354-10.839,2.761-3.058,6.137-5.459,10.125-7.203,3.985-1.743,8.471-2.616,13.454-2.616,4.121,0,7.94.69,11.449,2.073,3.513,1.382,6.547,3.375,9.107,5.98,2.559,2.606,4.564,5.821,6.016,9.65,1.449,3.829,2.173,8.188,2.173,13.081,0,1.903-.205,3.171-.612,3.805-.407.635-1.179.952-2.31.952h-46.005c.137,4.348.736,8.133,1.799,11.348,1.066,3.217,2.551,5.901,4.451,8.053,1.903,2.153,4.169,3.761,6.797,4.825,2.628,1.064,5.573,1.597,8.833,1.597,3.035,0,5.65-.35,7.851-1.054,2.197-.702,4.086-1.461,5.674-2.276,1.586-.817,2.91-1.574,3.973-2.277,1.066-.701,1.983-1.053,2.752-1.053.998,0,1.767.386,2.313,1.155l3.397,4.417Zm-9.787-32.279c0-2.809-.398-5.379-1.188-7.713-.793-2.332-1.948-4.348-3.468-6.048-1.517-1.698-3.361-3.012-5.538-3.942-2.173-.928-4.644-1.393-7.405-1.393-5.802,0-10.386,1.688-13.762,5.063-3.376,3.376-5.469,8.053-6.286,14.033h37.647Z" style="fill:#003b49;"></path><path d="m1024.741,369.045c2.173-4.711,4.846-8.393,8.02-11.043,3.168-2.65,7.043-3.976,11.619-3.976,1.449,0,2.842.16,4.181.477,1.336.316,2.524.815,3.566,1.495l-.882,9.037c-.273,1.134-.953,1.7-2.04,1.7-.635,0-1.562-.137-2.785-.408-1.223-.272-2.607-.408-4.145-.408-2.176,0-4.112.318-5.811.952-1.698.635-3.219,1.575-4.552,2.821-1.339,1.247-2.539,2.787-3.602,4.62-1.066,1.835-2.028,3.931-2.889,6.286v43.492h-12.165v-68.839h6.933c1.312,0,2.218.249,2.717.748s.837,1.358,1.018,2.582l.817,10.465Z" style="fill:#003b49;"></path><path d="m1119.635,357.969v4.485c0,1.495-.953,2.447-2.856,2.855l-7.815,1.018c1.541,2.99,2.313,6.298,2.313,9.922,0,3.354-.647,6.399-1.939,9.139-1.292,2.742-3.07,5.086-5.333,7.034-2.266,1.948-4.985,3.443-8.157,4.485s-6.612,1.563-10.327,1.563c-3.219,0-6.253-.385-9.107-1.155-1.452.906-2.559,1.868-3.331,2.888-.769,1.018-1.155,2.05-1.155,3.092,0,1.63.668,2.865,2.007,3.703,1.333.839,3.091,1.439,5.264,1.801,2.176.364,4.656.589,7.441.68,2.788.091,5.642.238,8.563.441,2.922.205,5.775.555,8.563,1.054,2.785.499,5.264,1.314,7.441,2.447,2.173,1.133,3.928,2.696,5.264,4.688,1.336,1.994,2.007,4.577,2.007,7.747,0,2.944-.739,5.799-2.209,8.562-1.473,2.763-3.593,5.221-6.354,7.374-2.764,2.151-6.149,3.873-10.161,5.165-4.008,1.29-8.528,1.936-13.558,1.936s-9.421-.499-13.18-1.495c-3.762-.998-6.889-2.334-9.38-4.01-2.491-1.676-4.359-3.612-5.606-5.809-1.247-2.199-1.868-4.497-1.868-6.898,0-3.398,1.063-6.275,3.192-8.63s5.051-4.236,8.768-5.64c-2.04-.906-3.661-2.117-4.861-3.636-1.2-1.517-1.799-3.568-1.799-6.151,0-.995.181-2.027.543-3.091s.917-2.129,1.666-3.195c.745-1.063,1.663-2.073,2.752-3.023,1.087-.952,2.355-1.79,3.804-2.515-3.397-1.903-6.048-4.427-7.952-7.577-1.9-3.147-2.853-6.805-2.853-10.974,0-3.352.647-6.399,1.939-9.139,1.289-2.741,3.091-5.074,5.401-7,2.31-1.926,5.063-3.409,8.257-4.451,3.192-1.042,6.693-1.563,10.499-1.563,2.99,0,5.775.33,8.358.986,2.58.656,4.935,1.62,7.067,2.888h18.688Zm-12.302,69.859c0-1.678-.475-3.036-1.425-4.078-.953-1.041-2.233-1.857-3.842-2.447-1.606-.588-3.477-1.007-5.606-1.256s-4.383-.442-6.761-.579c-2.378-.135-4.789-.272-7.236-.407-2.447-.137-4.804-.362-7.067-.68-2.539,1.179-4.611,2.662-6.221,4.451-1.606,1.789-2.411,3.884-2.411,6.286,0,1.54.395,2.978,1.188,4.316.793,1.335,2.007,2.491,3.637,3.465s3.679,1.744,6.149,2.31c2.47.567,5.38.851,8.733.851,3.263,0,6.185-.295,8.765-.883,2.583-.589,4.769-1.428,6.559-2.515,1.787-1.087,3.159-2.378,4.112-3.873.95-1.495,1.425-3.149,1.425-4.96Zm-21.812-37.377c2.447,0,4.596-.338,6.455-1.018,1.856-.68,3.421-1.632,4.688-2.855,1.268-1.222,2.218-2.684,2.853-4.383.635-1.698.953-3.568.953-5.606,0-4.213-1.283-7.566-3.839-10.058-2.562-2.49-6.265-3.737-11.111-3.737-4.893,0-8.62,1.247-11.179,3.737-2.559,2.493-3.839,5.845-3.839,10.058,0,2.038.327,3.908.986,5.606.656,1.698,1.618,3.161,2.886,4.383,1.268,1.223,2.833,2.175,4.688,2.855,1.859.68,4.011,1.018,6.458,1.018Z" style="fill:#003b49;"></path><path d="m1198.596,326.71c6.161,0,11.518.713,16.072,2.139,4.552,1.428,8.323,3.456,11.313,6.082,2.99,2.628,5.22,5.8,6.693,9.513,1.473,3.716,2.209,7.861,2.209,12.437,0,4.53-.793,8.676-2.378,12.435-1.586,3.761-3.908,7-6.966,9.718-3.058,2.718-6.841,4.835-11.348,6.353-4.507,1.519-9.706,2.277-15.594,2.277h-15.63v36.424h-13.115v-97.379h28.745Zm0,50.49c3.759,0,7.079-.499,9.956-1.495s5.3-2.389,7.272-4.179c1.969-1.789,3.453-3.93,4.451-6.422.995-2.491,1.494-5.232,1.494-8.222,0-6.207-1.915-11.054-5.743-14.543-3.827-3.487-9.638-5.232-17.429-5.232h-15.63v40.094h15.63Z" style="fill:#003b49;"></path><path d="m1318.915,403.974c.724,0,1.36.295,1.903.883l5.232,5.64c-3.988,4.622-8.822,8.223-14.508,10.805-5.686,2.583-12.56,3.873-20.624,3.873-6.978,0-13.32-1.211-19.027-3.634-5.71-2.424-10.579-5.821-14.612-10.193-4.032-4.372-7.159-9.616-9.377-15.733-2.221-6.115-3.331-12.843-3.331-20.182s1.158-14.067,3.468-20.183c2.31-6.115,5.558-11.371,9.751-15.765,4.19-4.394,9.208-7.803,15.051-10.228,5.843-2.423,12.302-3.636,19.368-3.636,6.93,0,13.047,1.11,18.347,3.33,5.3,2.221,9.968,5.233,14,9.038l-4.35,6.048c-.273.453-.624.827-1.054,1.121-.431.295-1.007.441-1.731.441-.817,0-1.814-.441-2.99-1.324-1.179-.883-2.72-1.869-4.623-2.956-1.9-1.088-4.279-2.073-7.135-2.956-2.853-.883-6.363-1.326-10.532-1.326-5.03,0-9.626.873-13.795,2.616-4.169,1.744-7.759,4.271-10.769,7.577-3.014,3.308-5.359,7.338-7.034,12.097-1.678,4.757-2.515,10.125-2.515,16.105,0,6.071.873,11.484,2.616,16.24s4.121,8.779,7.135,12.063c3.014,3.285,6.568,5.789,10.668,7.509,4.101,1.722,8.531,2.582,13.287,2.582,2.898,0,5.514-.169,7.848-.509s4.487-.871,6.455-1.597c1.972-.723,3.807-1.641,5.505-2.751s3.385-2.435,5.063-3.976c.769-.68,1.541-1.02,2.31-1.02Z" style="fill:#003b49;"></path><path d="m1392.499,341.932c-.41.678-.849,1.189-1.327,1.529-.475.338-1.051.509-1.731.509-.772,0-1.678-.385-2.72-1.155s-2.343-1.62-3.908-2.549c-1.562-.928-3.441-1.777-5.639-2.548s-4.861-1.155-7.984-1.155c-2.945,0-5.541.396-7.782,1.189s-4.121,1.868-5.639,3.228c-1.52,1.358-2.663,2.956-3.432,4.791-.772,1.835-1.155,3.817-1.155,5.946,0,2.718.668,4.972,2.004,6.761,1.336,1.79,3.103,3.32,5.3,4.587,2.197,1.269,4.688,2.368,7.477,3.296,2.785.929,5.639,1.891,8.56,2.888,2.922.998,5.778,2.119,8.563,3.364,2.785,1.247,5.276,2.821,7.474,4.723,2.197,1.903,3.964,4.237,5.303,7,1.333,2.764,2.004,6.161,2.004,10.193,0,4.259-.727,8.256-2.176,11.994-1.449,3.737-3.566,6.988-6.354,9.751-2.785,2.764-6.206,4.939-10.259,6.523-4.056,1.586-8.664,2.378-13.831,2.378-6.342,0-12.097-1.143-17.26-3.431s-9.582-5.379-13.252-9.276l3.807-6.252c.362-.499.805-.917,1.324-1.257s1.099-.509,1.734-.509c.588,0,1.256.238,2.004.713.748.477,1.597,1.076,2.548,1.801.953.726,2.04,1.519,3.263,2.378,1.223.861,2.616,1.655,4.178,2.378,1.565.726,3.34,1.326,5.336,1.801,1.992.477,4.234.714,6.728.714,3.124,0,5.912-.431,8.358-1.292,2.447-.86,4.519-2.073,6.218-3.636,1.698-1.562,2.999-3.431,3.908-5.606.906-2.175,1.357-4.598,1.357-7.272,0-2.944-.668-5.357-2.004-7.236-1.336-1.88-3.091-3.455-5.264-4.724-2.176-1.266-4.668-2.344-7.477-3.228s-5.662-1.789-8.563-2.718c-2.898-.928-5.751-2.004-8.56-3.228-2.812-1.223-5.3-2.809-7.477-4.757-2.173-1.948-3.931-4.383-5.267-7.306-1.336-2.922-2.004-6.534-2.004-10.838,0-3.443.668-6.773,2.004-9.99,1.336-3.216,3.287-6.071,5.846-8.562,2.559-2.491,5.707-4.485,9.445-5.98,3.738-1.495,8.029-2.243,12.878-2.243,5.437,0,10.386.861,14.849,2.583,4.46,1.722,8.391,4.212,11.788,7.475l-3.192,6.252Z" style="fill:#003b49;"></path><path d="m1519.573,403.974c.724,0,1.357.295,1.903.883l5.232,5.64c-3.988,4.622-8.825,8.223-14.508,10.805-5.686,2.583-12.563,3.873-20.627,3.873-6.975,0-13.317-1.211-19.027-3.634-5.707-2.424-10.576-5.821-14.609-10.193-4.032-4.372-7.159-9.616-9.38-15.733-2.218-6.115-3.329-12.843-3.329-20.182s1.155-14.067,3.465-20.183c2.31-6.115,5.561-11.371,9.751-15.765,4.19-4.394,9.208-7.803,15.054-10.228,5.843-2.423,12.299-3.636,19.365-3.636,6.933,0,13.05,1.11,18.35,3.33,5.3,2.221,9.965,5.233,13.997,9.038l-4.347,6.048c-.273.453-.624.827-1.054,1.121-.431.295-1.01.441-1.734.441-.814,0-1.811-.441-2.99-1.324s-2.717-1.869-4.62-2.956c-1.903-1.088-4.282-2.073-7.135-2.956s-6.366-1.326-10.535-1.326c-5.027,0-9.626.873-13.795,2.616-4.166,1.744-7.756,4.271-10.769,7.577-3.014,3.308-5.357,7.338-7.034,12.097-1.675,4.757-2.515,10.125-2.515,16.105,0,6.071.873,11.484,2.619,16.24,1.743,4.757,4.121,8.779,7.135,12.063,3.011,3.285,6.568,5.789,10.668,7.509,4.101,1.722,8.528,2.582,13.284,2.582,2.898,0,5.514-.169,7.848-.509s4.487-.871,6.458-1.597c1.969-.723,3.804-1.641,5.505-2.751,1.698-1.11,3.385-2.435,5.063-3.976.769-.68,1.538-1.02,2.31-1.02Z" style="fill:#003b49;"></path><path d="m1566.597,354.164c5.03,0,9.558.839,13.593,2.513,4.029,1.678,7.474,4.056,10.327,7.137s5.039,6.807,6.559,11.178c1.517,4.372,2.274,9.254,2.274,14.644,0,5.437-.757,10.33-2.274,14.678-1.52,4.35-3.706,8.064-6.559,11.145s-6.298,5.449-10.327,7.101c-4.035,1.654-8.563,2.481-13.593,2.481-5.074,0-9.638-.827-13.691-2.481-4.056-1.652-7.509-4.02-10.366-7.101-2.853-3.081-5.039-6.795-6.556-11.145-1.517-4.348-2.277-9.242-2.277-14.678,0-5.391.76-10.272,2.277-14.644,1.517-4.371,3.703-8.097,6.556-11.178,2.856-3.081,6.31-5.459,10.366-7.137,4.053-1.675,8.617-2.513,13.691-2.513Zm0,61.431c6.797,0,11.868-2.276,15.223-6.829,3.352-4.553,5.027-10.906,5.027-19.061,0-8.2-1.675-14.586-5.027-19.163-3.355-4.576-8.427-6.863-15.223-6.863-3.441,0-6.443.589-9.003,1.767-2.559,1.179-4.688,2.877-6.39,5.097-1.698,2.221-2.966,4.95-3.804,8.189-.84,3.239-1.259,6.898-1.259,10.974,0,8.155,1.689,14.508,5.063,19.061,3.376,4.553,8.507,6.829,15.393,6.829Z" style="fill:#003b49;"></path><path d="m1612.858,424.089v-68.839h7.272c1.722,0,2.785.839,3.195,2.515l.882,7.067c2.539-3.125,5.392-5.685,8.563-7.678s6.841-2.99,11.01-2.99c4.62,0,8.367,1.29,11.245,3.873,2.877,2.582,4.95,6.071,6.218,10.465.998-2.491,2.277-4.644,3.839-6.457,1.565-1.811,3.32-3.306,5.267-4.485,1.948-1.177,4.02-2.038,6.218-2.582s4.427-.815,6.696-.815c3.622,0,6.85.578,9.683,1.733,2.83,1.155,5.232,2.843,7.203,5.063,1.972,2.221,3.477,4.95,4.519,8.189,1.042,3.239,1.562,6.942,1.562,11.111v43.83h-12.165v-43.83c0-5.392-1.176-9.481-3.533-12.266-2.355-2.787-5.751-4.179-10.193-4.179-1.992,0-3.884.35-5.674,1.053-1.79.702-3.361,1.733-4.721,3.092-1.36,1.358-2.438,3.069-3.228,5.131-.793,2.061-1.191,4.451-1.191,7.169v43.83h-12.162v-43.83c0-5.527-1.113-9.65-3.331-12.368-2.221-2.718-5.46-4.077-9.718-4.077-2.99,0-5.751.805-8.29,2.411-2.536,1.609-4.87,3.796-6.998,6.559v51.305h-12.165Z" style="fill:#003b49;"></path><path d="m1734.457,365.919c2.898-3.578,6.25-6.455,10.057-8.63,3.807-2.173,8.154-3.262,13.047-3.262,3.988,0,7.589.76,10.805,2.277,3.216,1.517,5.956,3.761,8.222,6.727,2.266,2.968,4.011,6.65,5.235,11.043,1.223,4.394,1.835,9.447,1.835,15.155,0,5.073-.68,9.797-2.04,14.168-1.36,4.372-3.32,8.155-5.879,11.348-2.559,3.195-5.686,5.708-9.377,7.543-3.694,1.835-7.848,2.752-12.471,2.752-4.213,0-7.824-.714-10.838-2.141-3.014-1.427-5.674-3.409-7.984-5.946v30.444h-12.165v-92.147h7.272c1.722,0,2.785.839,3.195,2.515l1.087,8.154Zm.612,41.589c2.218,2.99,4.644,5.097,7.272,6.32,2.625,1.223,5.57,1.835,8.833,1.835,6.431,0,11.372-2.286,14.814-6.863,3.444-4.576,5.166-11.099,5.166-19.57,0-4.485-.398-8.336-1.191-11.553-.793-3.216-1.936-5.854-3.432-7.916-1.494-2.062-3.329-3.568-5.502-4.519-2.176-.952-4.647-1.427-7.408-1.427-3.943,0-7.396.906-10.363,2.717-2.969,1.813-5.698,4.374-8.189,7.68v33.297Z" style="fill:#003b49;"></path><path d="m1795.576,364.969c3.804-3.67,7.904-6.411,12.299-8.223,4.394-1.811,9.264-2.718,14.612-2.718,3.848,0,7.272.635,10.262,1.903,2.99,1.269,5.502,3.036,7.542,5.3,2.04,2.266,3.578,5.006,4.62,8.223,1.042,3.217,1.565,6.751,1.565,10.6v44.035h-5.368c-1.179,0-2.084-.192-2.72-.578-.635-.385-1.131-1.143-1.494-2.276l-1.36-6.525c-1.814,1.678-3.581,3.161-5.3,4.451-1.722,1.292-3.533,2.38-5.437,3.263s-3.931,1.562-6.081,2.038c-2.153.475-4.543.713-7.171.713-2.672,0-5.187-.373-7.542-1.121-2.358-.747-4.406-1.869-6.152-3.364-1.743-1.495-3.124-3.385-4.145-5.674-1.018-2.286-1.529-4.994-1.529-8.121,0-2.717.748-5.334,2.245-7.848,1.494-2.515,3.916-4.746,7.269-6.694,3.352-1.948,7.726-3.544,13.118-4.791,5.389-1.246,12.005-1.958,19.84-2.141v-5.368c0-5.345-1.155-9.389-3.465-12.129-2.31-2.741-5.686-4.111-10.125-4.111-2.99,0-5.493.373-7.509,1.121-2.016.747-3.759,1.586-5.232,2.513-1.473.929-2.741,1.767-3.807,2.515-1.063.747-2.117,1.121-3.159,1.121-.817,0-1.517-.214-2.105-.646-.591-.429-1.09-.962-1.496-1.596l-2.173-3.873Zm39.072,28.134c-5.57.181-10.318.622-14.235,1.324-3.919.704-7.114,1.621-9.582,2.752-2.47,1.133-4.261,2.47-5.368,4.01-1.11,1.54-1.666,3.262-1.666,5.164,0,1.813.294,3.376.882,4.69.591,1.314,1.396,2.39,2.414,3.228,1.018.839,2.218,1.45,3.602,1.835,1.381.385,2.865.578,4.451.578,2.129,0,4.077-.215,5.843-.646s3.432-1.054,4.994-1.869c1.565-.815,3.058-1.789,4.487-2.922,1.425-1.131,2.821-2.423,4.178-3.873v-14.27Z" style="fill:#003b49;"></path><path d="m1874.525,365.24c1.494-1.676,3.079-3.195,4.757-4.553,1.675-1.358,3.453-2.525,5.333-3.499s3.875-1.722,5.98-2.243c2.108-.52,4.383-.781,6.829-.781,3.762,0,7.079.624,9.956,1.869,2.877,1.246,5.276,3.012,7.203,5.3,1.927,2.288,3.388,5.04,4.383,8.256.998,3.217,1.496,6.773,1.496,10.67v43.83h-12.165v-43.83c0-5.21-1.188-9.254-3.566-12.131-2.378-2.876-5.992-4.314-10.841-4.314-3.578,0-6.921.861-10.021,2.582-3.106,1.722-5.971,4.054-8.599,6.998v50.695h-12.162v-68.839h7.272c1.719,0,2.785.839,3.192,2.515l.953,7.475Z" style="fill:#003b49;"></path><path d="m1994.123,355.25l-38.392,89.157c-.41.906-.917,1.632-1.529,2.175s-1.553.815-2.821.815h-8.97l12.572-27.318-28.407-64.829h10.467c1.042,0,1.868.261,2.479.782s1.03,1.099,1.259,1.733l18.415,43.355c.724,1.902,1.336,3.897,1.835,5.98.632-2.129,1.312-4.145,2.037-6.048l17.872-43.287c.273-.724.736-1.326,1.396-1.801.656-.477,1.393-.714,2.206-.714h9.582Z" style="fill:#003b49;"></path></svg>